/vscmnt/brussel_pixiu_data/_data_brussel/112/vsc11236/PredSimResults/SUBJ07mtu3D/worker1.mot
version=1
nRows=5
nColumns=50
inDegrees=yes
endheader
                time	         pelvis_tilt	         pelvis_list	     pelvis_rotation	           pelvis_tx	           pelvis_ty	           pelvis_tz	       hip_flexion_r	     hip_adduction_r	      hip_rotation_r	        knee_angle_r	       ankle_angle_r	         mtp_angle_r	       hip_flexion_l	     hip_adduction_l	      hip_rotation_l	        knee_angle_l	       ankle_angle_l	         mtp_angle_l	    lumbar_extension	      lumbar_bending	     lumbar_rotation	 ercspn_r/activation	 intobl_r/activation	 extobl_r/activation	    abd_r/activation	    add_r/activation	hamstrings_r/activation	bifemsh_r/activation	glut_max_r/activation	iliopsoas_r/activation	rect_fem_r/activation	  vasti_r/activation	gastroc_r/activation	 soleus_r/activation	tib_ant_r/activation	 ercspn_l/activation	 intobl_l/activation	 extobl_l/activation	    abd_l/activation	    add_l/activation	hamstrings_l/activation	bifemsh_l/activation	glut_max_l/activation	iliopsoas_l/activation	rect_fem_l/activation	  vasti_l/activation	gastroc_l/activation	 soleus_l/activation	tib_ant_l/activation	
          1.08712525	         -4.18858099	         -0.15026686	          8.52983525	          1.32629280	          0.85185910	         -0.01345826	         29.57335319	         -2.28786739	         -3.27615878	         -5.32140134	          3.37354047	          0.26125849	        -13.94591054	          0.22227136	          4.58782659	         -7.66487635	          8.96198813	         25.13774595	        -10.44551971	         -1.51883726	         -2.51938316	          0.12226484	          0.17590421	          0.01000169	          0.04039849	          0.09495620	          0.06216388	          0.13549190	          0.03792869	          0.01946406	          0.01418901	          0.01000138	          0.01001033	          0.01000129	          0.42695024	          0.08864515	          0.01000038	          0.01000117	          0.03789503	          0.01000159	          0.01007484	          0.15381892	          0.01665854	          0.22708455	          0.01000447	          0.01000056	          0.13732314	          0.26632069	          0.01663609	
          1.09799650	         -4.20544525	         -0.03586965	          8.54101279	          1.34168887	          0.85030932	         -0.01357667	         29.29659306	         -2.13539430	         -3.13269361	         -6.46533944	          3.12395981	          0.26400775	        -14.34908103	          0.27077975	          4.26778537	         -8.81523431	          8.17713448	         26.78424504	        -10.31894086	         -1.13125941	         -2.69928333	          0.10351104	          0.14892173	          0.01000239	          0.03420166	          0.11744010	          0.05262845	          0.11483864	          0.09553770	          0.01647910	          0.01201301	          0.01000248	          0.01658275	          0.01404453	          0.42477714	          0.12629823	          0.01000071	          0.01000125	          0.03208217	          0.01555621	          0.01612863	          0.13022463	          0.01410359	          0.24889321	          0.01002080	          0.01000559	          0.11625865	          0.24813745	          0.01408423	
          1.10886775	         -4.21484220	          0.05405252	          8.50616631	          1.35729844	          0.84888208	         -0.01365805	         28.93634694	         -2.03486522	         -2.87270220	         -7.72704072	          2.87310864	          0.25022054	        -14.62562544	          0.30634748	          3.91731930	        -10.22456907	          7.31021482	         28.40374485	        -10.17468105	         -0.70323110	         -2.86886795	          0.10660616	          0.12608153	          0.01000081	          0.08451188	          0.10630988	          0.05923644	          0.12158415	          0.11740590	          0.01395165	          0.01017067	          0.01000020	          0.01403941	          0.01189031	          0.47547975	          0.14731411	          0.01000026	          0.01000139	          0.02716096	          0.01317067	          0.01367042	          0.11024956	          0.01194032	          0.21071551	          0.01000274	          0.01000046	          0.09842530	          0.21009815	          0.01192381	
          1.11973900	         -4.22098281	          0.13822205	          8.42123178	          1.37293783	          0.84775823	         -0.01363247	         28.53979495	         -1.94125864	         -2.65439410	         -8.88214967	          2.47809104	          0.23702697	        -14.69354047	          0.34998925	          3.53858229	        -12.00422286	          6.32426183	         29.95227854	        -10.03337322	         -0.26970168	         -3.02336741	          0.12297520	          0.10674151	          0.01000089	          0.13696932	          0.11823803	          0.05311815	          0.10293532	          0.13643911	          0.01181191	          0.01000114	          0.01000039	          0.01188615	          0.01006657	          0.50214593	          0.17092993	          0.01000027	          0.01000110	          0.02299464	          0.01115107	          0.01163666	          0.09333844	          0.01010897	          0.17839378	          0.01000402	          0.01000078	          0.08332746	          0.17787045	          0.01009482	
          1.13061026	         -4.22428748	          0.21695022	          8.29255239	          1.38843472	          0.84709244	         -0.01349997	         28.19618750	         -1.83932112	         -2.48532402	        -10.12897811	          2.20994885	          0.21825022	        -14.47974617	          0.40269860	          3.13380372	        -14.25140874	          5.19798042	         31.34049308	         -9.91101341	          0.16718864	         -3.16188483	          0.12859679	          0.09036808	          0.01000090	          0.17702347	          0.13618580	          0.04854759	          0.08714652	          0.15747679	          0.01000132	          0.01000216	          0.01588644	          0.01006392	          0.01000276	          0.51474044	          0.20639948	          0.01000033	          0.01000092	          0.01946740	          0.01910082	          0.01351881	          0.07902136	          0.01000059	          0.15102972	          0.01000261	          0.01000082	          0.07054554	          0.15058618	          0.01000016	
